<svg xmlns="http://www.w3.org/2000/svg" viewBox="0 0 36 36" fill="none" stroke="#171717" stroke-width="0.7" stroke-linecap="round" stroke-linejoin="round">

  
  <path d="M11 9 q1.5 -2 3 0 q1.5 -2 3 0 q1.5 -2 3 0 q1.5 -2 3 0"></path>
  <circle cx="12.5" cy="8" r="0.6"></circle>
  <circle cx="18" cy="8" r="0.6"></circle>
  <circle cx="23.5" cy="8" r="0.6"></circle>
  
  <path d="M11 27 q1.5 2 3 0 q1.5 2 3 0 q1.5 2 3 0 q1.5 2 3 0"></path>
  <circle cx="12.5" cy="28" r="0.6"></circle>
  <circle cx="18" cy="28" r="0.6"></circle>
  <circle cx="23.5" cy="28" r="0.6"></circle>
  
  <path d="M10 18&#xA;           c0 -3.5 4 -3.5 6 0&#xA;           c2 3.5 6 3.5 8 0&#xA;           c2 -3.5 -2 -3.5 -4 0&#xA;           c-2 3.5 -8 3.5 -10 0 Z"></path>
  
  <circle cx="13" cy="18" r="0.5" fill="#171717" stroke="none"></circle>
  <circle cx="23" cy="18" r="0.5" fill="#171717" stroke="none"></circle>

</svg>